<?xml version="1.0" standalone="no"?>
<!DOCTYPE svg PUBLIC "-//W3C//DTD SVG 20010904//EN"
 "http://www.w3.org/TR/2001/REC-SVG-20010904/DTD/svg10.dtd">
<svg version="1.0" xmlns="http://www.w3.org/2000/svg"
 width="1024.000000pt" height="1024.000000pt" viewBox="0 0 1024.000000 1024.000000"
 preserveAspectRatio="xMidYMid meet">
<metadata>
Created by potrace 1.11, written by Peter Selinger 2001-2013
</metadata>
<g transform="translate(0.000000,1024.000000) scale(0.100000,-0.100000)"
fill="#000000" stroke="none">
<path d="M1189 10236 c-2 -2 -31 -7 -63 -11 -33 -3 -63 -8 -68 -11 -5 -3 -21
-8 -36 -11 -41 -8 -57 -11 -59 -13 -2 -2 -6 -3 -10 -4 -29 -6 -122 -41 -138
-52 -11 -7 -24 -14 -30 -15 -19 -3 -75 -33 -75 -39 0 -4 -6 -7 -13 -7 -7 0
-36 -16 -65 -36 -28 -20 -55 -37 -58 -37 -4 0 -17 -11 -30 -25 -13 -14 -27
-25 -31 -25 -13 0 -197 -192 -218 -228 -11 -17 -23 -32 -27 -32 -4 0 -8 -7 -8
-15 0 -8 -4 -15 -10 -15 -5 0 -10 -7 -10 -15 0 -8 -4 -15 -10 -15 -5 0 -12
-11 -16 -25 -3 -14 -10 -25 -14 -25 -5 0 -12 -10 -16 -22 -4 -13 -11 -26 -16
-29 -5 -3 -11 -12 -13 -20 -9 -39 -18 -59 -28 -59 -6 0 -7 -3 -4 -6 3 -4 1
-16 -5 -28 -7 -11 -11 -24 -10 -28 1 -5 -2 -8 -6 -8 -5 0 -9 -6 -10 -12 -1
-18 -7 -39 -20 -69 -6 -15 -14 -44 -18 -65 -3 -22 -9 -43 -13 -49 -3 -5 -6
-17 -6 -25 -1 -8 -5 -30 -9 -49 -5 -19 -9 -48 -10 -66 -2 -17 -6 -36 -9 -42
-8 -13 -4 -7791 4 -7813 6 -16 18 -71 22 -107 2 -12 6 -26 10 -29 4 -4 7 -18
7 -30 0 -13 4 -33 9 -46 16 -40 24 -63 27 -78 2 -8 7 -23 12 -35 22 -45 43
-95 44 -102 0 -5 12 -25 24 -45 13 -21 24 -40 24 -43 0 -7 100 -156 114 -171
6 -6 27 -30 46 -54 19 -24 48 -55 64 -69 15 -14 40 -37 55 -51 56 -52 87 -76
104 -83 9 -3 17 -11 17 -17 0 -5 7 -10 15 -10 9 0 18 -7 21 -15 4 -8 10 -12
15 -9 5 3 9 0 9 -5 0 -6 9 -11 19 -11 11 0 21 -4 23 -9 4 -12 128 -73 128 -64
0 5 4 4 8 -2 6 -9 53 -30 87 -39 6 -2 17 -6 25 -9 8 -3 29 -9 45 -13 17 -4 37
-9 45 -11 8 -3 30 -5 47 -6 18 -1 33 -5 33 -9 0 -4 14 -6 30 -4 17 2 33 0 35
-4 6 -10 25 -8 44 4 10 6 12 5 7 -3 -6 -8 943 -11 3914 -11 2157 0 3919 4
3916 8 -2 4 15 7 40 6 24 -1 44 1 44 5 0 4 10 7 23 8 12 0 36 4 52 7 17 4 36
8 43 8 6 1 12 6 12 11 0 6 3 8 6 4 4 -3 36 6 73 20 36 14 72 25 79 26 6 0 12
4 12 9 0 4 9 8 20 8 11 0 20 5 20 10 0 6 5 10 11 10 14 0 143 76 163 96 9 8
16 13 16 10 0 -9 24 12 143 127 59 57 107 108 107 114 0 6 7 13 15 17 8 3 15
11 15 17 0 6 10 20 22 30 11 11 18 19 14 19 -4 0 5 16 20 36 28 36 127 224
118 224 -2 0 3 11 12 25 9 14 13 25 9 25 -4 0 -3 6 2 13 11 13 27 67 25 79 -1
5 2 8 6 8 4 0 8 8 9 18 1 9 7 37 13 62 6 25 13 59 15 75 2 17 4 30 5 30 12 0
15 662 14 3965 0 2131 -2 3890 -4 3908 -2 17 -6 32 -9 32 -3 0 -7 15 -8 33 -3
31 -10 72 -13 72 -1 0 -3 9 -4 20 -5 38 -60 195 -68 195 -5 0 -7 4 -3 10 3 5
-9 38 -27 72 -17 35 -31 66 -30 71 1 4 -2 7 -8 7 -5 0 -10 5 -10 10 0 6 -24
45 -52 87 -29 42 -57 83 -63 92 -20 33 -247 251 -256 245 -5 -3 -9 -1 -9 4 0
12 -89 69 -175 112 -38 19 -73 39 -76 43 -3 5 -9 8 -13 8 -10 -2 -60 11 -71
19 -12 8 -88 30 -125 37 -14 2 -40 8 -57 13 -18 4 -44 7 -58 6 -14 -2 -25 1
-25 7 0 5 -8 3 -17 -4 -11 -9 -14 -10 -9 -2 6 10 -794 13 -3922 13 -2161 0
-3931 -2 -3933 -4z"/>
</g>
</svg>
